<svg id="Layer_1" data-name="Layer 1" xmlns="http://www.w3.org/2000/svg" viewBox="0 0 300 300"><defs><style>.cls-1{fill:#ed1c24;}</style></defs><path d="M45,137.67a.81.81,0,0,1,.2-.57.71.71,0,0,1,.55-.22H57.11a7.14,7.14,0,0,1,2.84.58,7.33,7.33,0,0,1,3.92,3.92,7.09,7.09,0,0,1,.58,2.88,6.89,6.89,0,0,1-.4,2.39,6.55,6.55,0,0,1-1.14,2,8.06,8.06,0,0,1,2,2.69,7.78,7.78,0,0,1,.72,3.3,7.38,7.38,0,0,1-.6,2.95A8.2,8.2,0,0,1,63.37,160,7.69,7.69,0,0,1,61,161.68a6.88,6.88,0,0,1-2.87.61H45.75a.78.78,0,0,1-.54-.18.68.68,0,0,1-.21-.55Zm12.88,6.74a2.47,2.47,0,0,0-.18-.95,2.52,2.52,0,0,0-.54-.79,2.44,2.44,0,0,0-.82-.54,2.77,2.77,0,0,0-1.05-.2H51.62v5h3.62a3,3,0,0,0,1.07-.19,2.37,2.37,0,0,0,.84-.51,2.63,2.63,0,0,0,.54-.79A2.48,2.48,0,0,0,57.88,144.41Zm.91,9.94a2.65,2.65,0,0,0-.2-1,3,3,0,0,0-.55-.92,2.74,2.74,0,0,0-.84-.66,2.2,2.2,0,0,0-1.05-.25H51.62v5.71h4.53A2.35,2.35,0,0,0,57.2,157a2.89,2.89,0,0,0,.84-.64,2.85,2.85,0,0,0,.55-.92A2.74,2.74,0,0,0,58.79,154.35Z"/><path d="M69.12,141.83a1.26,1.26,0,0,1,.12-.57,1.12,1.12,0,0,1,.32-.39,1.42,1.42,0,0,1,.44-.23,1.73,1.73,0,0,1,.49-.08h2.58a.94.94,0,0,1,.69.26,2.25,2.25,0,0,1,.44.65,5.88,5.88,0,0,1,.31.87,7.32,7.32,0,0,0,.33.93q.51-.57,1-1.11a6.65,6.65,0,0,1,1.08-1,5.1,5.1,0,0,1,1.28-.69,4.33,4.33,0,0,1,1.58-.27,9.07,9.07,0,0,1,1.65.14,6.87,6.87,0,0,1,1.38.4,8,8,0,0,1,1.29.68c.43.27.89.59,1.39.95a1.23,1.23,0,0,1,.74,1,1.82,1.82,0,0,1-.29.88l-1.56,2.65a1.36,1.36,0,0,1-1.14.66,2,2,0,0,1-.77-.18,5.43,5.43,0,0,0-1.5-1.07,4.19,4.19,0,0,0-1.74-.35,3.51,3.51,0,0,0-1.17.18,3.27,3.27,0,0,0-.92.54,4.68,4.68,0,0,0-.77.82,11.48,11.48,0,0,0-.71,1.06V161a1.38,1.38,0,0,1-.32,1,1.41,1.41,0,0,1-1,.33H70.46A1.17,1.17,0,0,1,69.12,161Z"/><path d="M116.59,161.54a2.93,2.93,0,0,0,.15-.75c0-.28,0-.56,0-.86v-.23a.53.53,0,0,0,0-.13v-.36c-.33.36-.67.7-1,1a6.8,6.8,0,0,1-1.14.91,5.69,5.69,0,0,1-1.41.65,6,6,0,0,1-1.83.25,11.32,11.32,0,0,1-4.28-.79,9.92,9.92,0,0,1-5.65-5.57,11.51,11.51,0,0,1-.8-4.33,12,12,0,0,1,.8-4.39,11.15,11.15,0,0,1,2.24-3.56,10.44,10.44,0,0,1,7.69-3.24,7.29,7.29,0,0,1,1.93.24,6.72,6.72,0,0,1,1.6.66,7.13,7.13,0,0,1,1.33,1,11.43,11.43,0,0,1,1.11,1.2l.48-1.53.19-.53a1.18,1.18,0,0,1,.22-.4.83.83,0,0,1,.35-.25,1.68,1.68,0,0,1,.55-.08h2.55a1.61,1.61,0,0,1,.48.08,1.7,1.7,0,0,1,.44.24,1.26,1.26,0,0,1,.32.4,1.19,1.19,0,0,1,.12.54v17.42a12.28,12.28,0,0,1-.88,4.76,9.94,9.94,0,0,1-6,5.71,12.72,12.72,0,0,1-4.45.76,13,13,0,0,1-2-.17,16.17,16.17,0,0,1-2.12-.48,13.73,13.73,0,0,1-2-.83,8.44,8.44,0,0,1-1.74-1.18,1.62,1.62,0,0,1-.43-.47,1.12,1.12,0,0,1-.18-.62,1.67,1.67,0,0,1,.32-.91l1.63-2.24a2.31,2.31,0,0,1,.44-.38.81.81,0,0,1,.45-.13,1.7,1.7,0,0,1,.94.41,3.52,3.52,0,0,0,1,.66,7.78,7.78,0,0,0,1.15.39,6.84,6.84,0,0,0,1.16.19c.38,0,.73,0,1,0a6.52,6.52,0,0,0,1.6-.21,5.94,5.94,0,0,0,1.57-.6,5.22,5.22,0,0,0,1.28-1A3,3,0,0,0,116.59,161.54Zm-9.79-10.16a6.43,6.43,0,0,0,.35,2.13,5.06,5.06,0,0,0,1,1.7,4.48,4.48,0,0,0,1.57,1.13,4.93,4.93,0,0,0,2,.41,5.43,5.43,0,0,0,2.06-.39,5,5,0,0,0,1.69-1.07,5.3,5.3,0,0,0,1.16-1.6,5.2,5.2,0,0,0,.48-2v-.57a5.15,5.15,0,0,0-.48-2,5.61,5.61,0,0,0-1.16-1.64,5.5,5.5,0,0,0-1.69-1.13,5.09,5.09,0,0,0-2.06-.42,4.64,4.64,0,0,0-2,.44,4.72,4.72,0,0,0-1.57,1.17,5.2,5.2,0,0,0-1,1.73A6.32,6.32,0,0,0,106.8,151.38Z"/><path d="M134.4,142.85a4.32,4.32,0,0,1,.89-.95,6.6,6.6,0,0,1,1.32-.83,8,8,0,0,1,1.65-.6,8,8,0,0,1,1.92-.23,7.2,7.2,0,0,1,3.38.75,6.66,6.66,0,0,1,2.36,2,9,9,0,0,1,1.38,3,14.21,14.21,0,0,1,.46,3.7V161a1.47,1.47,0,0,1-.29,1,1.09,1.09,0,0,1-.89.33h-4a1.52,1.52,0,0,1-1-.25,1.28,1.28,0,0,1-.27-1V149.77a3.29,3.29,0,0,0-.28-1.37,3.53,3.53,0,0,0-1.88-1.84,3.51,3.51,0,0,0-1.36-.27,3.2,3.2,0,0,0-1.21.25,3.55,3.55,0,0,0-1.06.7,4.18,4.18,0,0,0-.79,1.09,3.58,3.58,0,0,0-.36,1.4V161a1.54,1.54,0,0,1-.12.58.88.88,0,0,1-.33.44,1.28,1.28,0,0,1-.42.19,1.55,1.55,0,0,1-.45,0h-3.87a1.37,1.37,0,0,1-1.06-.36,1.36,1.36,0,0,1-.33-1V135.41a1.33,1.33,0,0,1,.33-.94,1.37,1.37,0,0,1,1.06-.36h3.87a1.81,1.81,0,0,1,.87.27.86.86,0,0,1,.33.45,1.39,1.39,0,0,1,.12.54Z"/><path d="M153.86,137.18a.93.93,0,0,1,.36-.8,3.69,3.69,0,0,1,1-.5l3.88-1.36h.31a.92.92,0,0,1,.85.36,2,2,0,0,1,.21,1l0,4.71h2.35a1.28,1.28,0,0,1,.89.32,1.32,1.32,0,0,1,.34,1v3.3a1.44,1.44,0,0,1-.34,1,1.25,1.25,0,0,1-.89.34h-2.35l0,14.44a1.24,1.24,0,0,1-.38,1,1.51,1.51,0,0,1-1,.33h-3.87a1.16,1.16,0,0,1-1.32-1.31V146.54h-1.76c-.88,0-1.32-.47-1.32-1.39v-3.3a1.16,1.16,0,0,1,1.32-1.3h1.76Z"/><path d="M186.3,137.26a.53.53,0,0,1,.48-.38H189a.76.76,0,0,1,.57.17.57.57,0,0,1,.15.4v.22l-3.92,9.45L190,157.28l8-19.76a.91.91,0,0,1,.91-.64h1.76a.81.81,0,0,1,.59.17.54.54,0,0,1,.17.4v.15l-10,24a.49.49,0,0,1,0,.13.79.79,0,0,1-.15.24,1.05,1.05,0,0,1-.27.24.78.78,0,0,1-.41.11h-1.17a.84.84,0,0,1-.64-.22.65.65,0,0,1-.21-.41l-4.42-10.54-4.36,10.45a1.19,1.19,0,0,1-.3.51.67.67,0,0,1-.49.21h-1.21a.75.75,0,0,1-.57-.23,1.87,1.87,0,0,1-.29-.42l-9.94-24,0-.1a.4.4,0,0,1,0-.15c0-.36.23-.54.67-.54h1.92a.76.76,0,0,1,.48.18,1.11,1.11,0,0,1,.36.54l8,19.68Z"/><path d="M209.1,161.54a.67.67,0,0,1-.76.75h-1.76c-.54,0-.8-.25-.8-.75V141.32a.71.71,0,0,1,.22-.55.74.74,0,0,1,.53-.21h1.78a.75.75,0,0,1,.57.23.73.73,0,0,1,.22.53Z"/><path d="M230.31,157.35l.27-.22a1.08,1.08,0,0,1,.3-.16.62.62,0,0,1,.33,0,.75.75,0,0,1,.33.28l.56.75.35.46.2.27a2.6,2.6,0,0,1,.15.28.44.44,0,0,1,0,.3,1,1,0,0,1-.17.36,2.46,2.46,0,0,1-.46.43,13,13,0,0,1-1.53,1.05A11.24,11.24,0,0,1,229,162a10.6,10.6,0,0,1-1.84.53,11,11,0,0,1-2,.19,10.6,10.6,0,0,1-2.94-.41,11.15,11.15,0,0,1-2.68-1.14,11.75,11.75,0,0,1-4.08-4,11.29,11.29,0,0,1-1.17-2.68,10.93,10.93,0,0,1,0-5.93,11.46,11.46,0,0,1,1.17-2.68,11.75,11.75,0,0,1,4.08-4.05,11.15,11.15,0,0,1,2.68-1.14,10.6,10.6,0,0,1,2.94-.41,10.29,10.29,0,0,1,1.91.18,12.34,12.34,0,0,1,1.83.5,11.93,11.93,0,0,1,1.66.74,9.88,9.88,0,0,1,1.39.93l.28.23a1.53,1.53,0,0,1,.28.29.93.93,0,0,1,.14.36.6.6,0,0,1-.08.42l-1.25,1.64c-.3.39-.64.38-1,0a6.52,6.52,0,0,0-1.06-.86,8.18,8.18,0,0,0-1.28-.67,7.76,7.76,0,0,0-1.42-.43,6.66,6.66,0,0,0-1.46-.16,6.93,6.93,0,0,0-2.91.65,8.31,8.31,0,0,0-2.47,1.76,8.83,8.83,0,0,0-1.73,2.59,7.46,7.46,0,0,0-.65,3.1,7.58,7.58,0,0,0,.64,3.1,8.41,8.41,0,0,0,1.72,2.56,8.22,8.22,0,0,0,2.49,1.74,7.13,7.13,0,0,0,2.93.64,7.33,7.33,0,0,0,1.7-.18,6.77,6.77,0,0,0,2.54-1.17C229.64,157.89,230,157.62,230.31,157.35Z"/><path d="M237.56,134.85a.78.78,0,0,1,.2-.53.7.7,0,0,1,.56-.22h1.78a.84.84,0,0,1,.54.2.69.69,0,0,1,.24.55v15.57l8.9-9.43a3.9,3.9,0,0,1,.42-.32,1.05,1.05,0,0,1,.52-.12h2.6a.63.63,0,0,1,.43.12.37.37,0,0,1,.14.29.86.86,0,0,1-.19.56l-8.33,8.64,9.41,11.16h0a.72.72,0,0,1,.22.37,1.37,1.37,0,0,1,0,.29.26.26,0,0,1-.11.25.92.92,0,0,1-.4.06h-3a.78.78,0,0,1-.44-.13,1.07,1.07,0,0,1-.34-.43l-7.65-9.28-2.23,2.3v6.79q0,.75-.78.75h-1.78a.67.67,0,0,1-.76-.75Z"/><path class="cls-1" d="M127.82,168.51a.23.23,0,0,1,.25-.25h2.6a2.37,2.37,0,0,1,1.74.72,2.43,2.43,0,0,1,.5.78,2.29,2.29,0,0,1,.19.94,2.39,2.39,0,0,1-.69,1.68,2.26,2.26,0,0,1-.76.53,2.31,2.31,0,0,1-1,.2h-1.86v2.71a.2.2,0,0,1-.23.23h-.56a.2.2,0,0,1-.23-.23Zm4.26,2.18a1.24,1.24,0,0,0-.11-.54,1.37,1.37,0,0,0-.3-.45,1.55,1.55,0,0,0-.44-.32,1.34,1.34,0,0,0-.56-.12h-1.83v2.85h1.83a1.25,1.25,0,0,0,.54-.12,1.62,1.62,0,0,0,.46-.31,1.54,1.54,0,0,0,.3-.45A1.27,1.27,0,0,0,132.08,170.69Z"/><path class="cls-1" d="M139.36,168.51c0-.16.07-.25.23-.25h3a2.44,2.44,0,0,1,1,.2,2.67,2.67,0,0,1,.79.53,2.47,2.47,0,0,1,.61,2.47,2.38,2.38,0,0,1-.28.63,2.69,2.69,0,0,1-.44.51,2.53,2.53,0,0,1-.58.38l1.39,2.84v.07c0,.11-.06.16-.19.16h-.64a.27.27,0,0,1-.25-.19l-1.26-2.65h-2.36v2.59c0,.16-.09.23-.25.23h-.54c-.16,0-.23-.07-.23-.23Zm4.73,2.23a1.5,1.5,0,0,0-.11-.55,1.72,1.72,0,0,0-.31-.48,1.56,1.56,0,0,0-.47-.32,1.41,1.41,0,0,0-.58-.13h-2.24v3h2.26a1.35,1.35,0,0,0,.57-.12,1.4,1.4,0,0,0,.46-.32,1.72,1.72,0,0,0,.31-.48A1.47,1.47,0,0,0,144.09,170.74Z"/><path class="cls-1" d="M155.15,168.16a3.94,3.94,0,0,1,2,.54,4.18,4.18,0,0,1,.81.63,3.53,3.53,0,0,1,.63.81,4.06,4.06,0,0,1,.4,1,3.91,3.91,0,0,1,.15,1.08,4.17,4.17,0,0,1-.14,1.06,3.84,3.84,0,0,1-.41.95,3.53,3.53,0,0,1-.63.81,4.14,4.14,0,0,1-1.77,1,4.12,4.12,0,0,1-2.13,0,3.91,3.91,0,0,1-1-.41,4,4,0,0,1-1.83-2.39,4.12,4.12,0,0,1,0-2.13,4.06,4.06,0,0,1,.4-1,4.89,4.89,0,0,1,.63-.81,4.18,4.18,0,0,1,.81-.63,4.52,4.52,0,0,1,1-.4A3.72,3.72,0,0,1,155.15,168.16Zm-3,4a2.9,2.9,0,0,0,.11.79,2.87,2.87,0,0,0,.77,1.32,2.83,2.83,0,0,0,.61.47,3,3,0,0,0,1.5.41,3,3,0,0,0,.8-.11,3,3,0,0,0,.71-.3,3,3,0,0,0,1.37-1.79,2.9,2.9,0,0,0,.11-.79,2.83,2.83,0,0,0-.24-1.16,3,3,0,0,0-.64-1,3.07,3.07,0,0,0-.94-.64,2.88,2.88,0,0,0-1.17-.24,3,3,0,0,0-1.5.41,2.83,2.83,0,0,0-.61.47,2.87,2.87,0,0,0-.77,1.32A3,3,0,0,0,152.15,172.15Z"/><path class="cls-1" d="M165.44,168.51a.23.23,0,0,1,.25-.25h2.45a4.18,4.18,0,0,1,1.07.14,3.73,3.73,0,0,1,.94.39,3.55,3.55,0,0,1,.79.61,4.15,4.15,0,0,1,.6.78,4.33,4.33,0,0,1,.39.94,4,4,0,0,1,.13,1,3.9,3.9,0,0,1-.14,1,3.82,3.82,0,0,1-.39.93,3.88,3.88,0,0,1-.61.79,3.64,3.64,0,0,1-.8.6,3.82,3.82,0,0,1-.93.39,3.69,3.69,0,0,1-1.05.14h-2.45a.31.31,0,0,1-.17,0,.19.19,0,0,1-.08-.18Zm2.67,6.54a3,3,0,0,0,2.11-.87,2.82,2.82,0,0,0,.61-.94,2.88,2.88,0,0,0,.22-1.13,2.78,2.78,0,0,0-.23-1.17,2.59,2.59,0,0,0-.62-.89,3,3,0,0,0-.93-.58,3,3,0,0,0-1.13-.21h-1.69v5.79Z"/><path class="cls-1" d="M179.3,172.83a2.83,2.83,0,0,0,.14.93,2.28,2.28,0,0,0,.42.75,2,2,0,0,0,.69.5,2.51,2.51,0,0,0,1.89,0,1.86,1.86,0,0,0,.69-.5,2.08,2.08,0,0,0,.4-.75,3,3,0,0,0,.14-.92v-4.34a.2.2,0,0,1,.07-.16.21.21,0,0,1,.17-.07h.51a.32.32,0,0,1,.18.06.2.2,0,0,1,.08.17V173a3.21,3.21,0,0,1-.25,1.3,3,3,0,0,1-.69,1,2.89,2.89,0,0,1-1,.66,3.27,3.27,0,0,1-1.25.24,3.05,3.05,0,0,1-1.24-.25,3.28,3.28,0,0,1-1-.69,3.53,3.53,0,0,1-.69-1,3.1,3.1,0,0,1-.25-1.25v-4.48a.24.24,0,0,1,.06-.15.19.19,0,0,1,.16-.08h.56a.23.23,0,0,1,.16.07.19.19,0,0,1,.09.16Z"/><path class="cls-1" d="M197.15,168.92a.28.28,0,0,1,.09.1.15.15,0,0,1,0,.11.16.16,0,0,1,0,.12l-.28.46c-.06.09-.12.13-.18.13l-.09,0-.1-.06a3.13,3.13,0,0,0-.79-.41,3.1,3.1,0,0,0-3.12.73,3.13,3.13,0,0,0-.65,1,2.79,2.79,0,0,0-.24,1.15,2.9,2.9,0,0,0,.24,1.18,3.29,3.29,0,0,0,.65.94,3,3,0,0,0,.95.61,2.85,2.85,0,0,0,1.13.22l.43,0a2.57,2.57,0,0,0,.44-.11,4.1,4.1,0,0,0,.46-.19c.16-.08.33-.18.51-.29a.35.35,0,0,1,.17-.06c.06,0,.12,0,.17.13l.3.49a.38.38,0,0,1,0,.13.24.24,0,0,1-.13.2,4.16,4.16,0,0,1-1.09.56,4,4,0,0,1-1.28.2,3.89,3.89,0,0,1-2-.55A3.76,3.76,0,0,1,192,175a4,4,0,0,1-.62-.8,4.06,4.06,0,0,1-.4-1,3.86,3.86,0,0,1,0-2.13,4.06,4.06,0,0,1,.4-1,4.41,4.41,0,0,1,.63-.81,4.18,4.18,0,0,1,.81-.63,4.52,4.52,0,0,1,1-.4,3.72,3.72,0,0,1,1.06-.14,4,4,0,0,1,1.25.19A4.17,4.17,0,0,1,197.15,168.92Z"/><path class="cls-1" d="M208.45,168.26a.27.27,0,0,1,.17.06.24.24,0,0,1,.09.17V169a.28.28,0,0,1-.06.18.26.26,0,0,1-.2.08h-2.18v6.53a.27.27,0,0,1-.06.17.24.24,0,0,1-.18.07h-.53a.24.24,0,0,1-.25-.24v-6.53h-2.19a.24.24,0,0,1-.17-.06.26.26,0,0,1-.07-.2v-.53a.22.22,0,0,1,.07-.17.24.24,0,0,1,.17-.06Z"/><path class="cls-1" d="M214.72,168.49a.23.23,0,0,1,.06-.16.19.19,0,0,1,.17-.07h.54a.25.25,0,0,1,.17.06.22.22,0,0,1,.07.17v7.33c0,.16-.08.23-.24.23H215c-.16,0-.23-.07-.23-.23Z"/><path class="cls-1" d="M226,168.16a3.76,3.76,0,0,1,1.06.14,4.06,4.06,0,0,1,1,.4,4.89,4.89,0,0,1,.81.63,3.78,3.78,0,0,1,.62.81,4.09,4.09,0,0,1,.41,1,4.32,4.32,0,0,1,.14,1.08,4.17,4.17,0,0,1-.14,1.06,4.24,4.24,0,0,1-.4.95,4.18,4.18,0,0,1-.63.81,4.14,4.14,0,0,1-1.77,1,4.16,4.16,0,0,1-2.14,0,4.09,4.09,0,0,1-1-.41,3.7,3.7,0,0,1-.8-.63,3.79,3.79,0,0,1-1-1.76,4.12,4.12,0,0,1,0-2.13,3.71,3.71,0,0,1,.41-1,4.36,4.36,0,0,1,.62-.81,3.89,3.89,0,0,1,1.77-1A3.79,3.79,0,0,1,226,168.16Zm-3,4a2.9,2.9,0,0,0,.1.79,3.56,3.56,0,0,0,.31.72,2.66,2.66,0,0,0,.46.6,3.42,3.42,0,0,0,.61.47,3,3,0,0,0,.71.3,2.93,2.93,0,0,0,1.59,0,3,3,0,0,0,.71-.3,3.42,3.42,0,0,0,.61-.47,3,3,0,0,0,.46-.6,3.56,3.56,0,0,0,.31-.72,2.9,2.9,0,0,0,.1-.79,3,3,0,0,0-.23-1.16,3,3,0,0,0-1.59-1.59,2.83,2.83,0,0,0-1.16-.24,3,3,0,0,0-.8.11,3,3,0,0,0-.71.3,3.42,3.42,0,0,0-.61.47,2.66,2.66,0,0,0-.46.6,3.56,3.56,0,0,0-.31.72A3,3,0,0,0,223,172.15Z"/><path class="cls-1" d="M242.09,176.05a.22.22,0,0,1-.2-.11l-4.58-6.14v6c0,.16-.08.23-.24.23h-.53c-.16,0-.23-.07-.23-.23V168.5a.24.24,0,0,1,.06-.17.21.21,0,0,1,.17-.07h.7a.26.26,0,0,1,.22.12l4.47,5.93v-5.86a.21.21,0,0,1,.23-.19h.53a.27.27,0,0,1,.17.06.2.2,0,0,1,.08.17v7.33c0,.16-.08.23-.25.23Z"/><path class="cls-1" d="M253.91,170l-.24-.18a2.91,2.91,0,0,0-.41-.28,3.13,3.13,0,0,0-.55-.25,1.75,1.75,0,0,0-.65-.12,2.5,2.5,0,0,0-.72.1,1.52,1.52,0,0,0-.49.27,1,1,0,0,0-.29.37,1.06,1.06,0,0,0-.09.42.68.68,0,0,0,.2.49,1.83,1.83,0,0,0,.51.35,7.63,7.63,0,0,0,.73.26l.83.25.83.29a3.14,3.14,0,0,1,.72.41,1.92,1.92,0,0,1,.52.58,1.67,1.67,0,0,1,.19.81,2.2,2.2,0,0,1-.23,1,2.28,2.28,0,0,1-.62.76,3,3,0,0,1-.93.5,3.9,3.9,0,0,1-1.15.17,3.66,3.66,0,0,1-.81-.09,3.9,3.9,0,0,1-.77-.27,3.48,3.48,0,0,1-.69-.43,3.18,3.18,0,0,1-.58-.58.27.27,0,0,1-.06-.16.21.21,0,0,1,.09-.16l.41-.35a.22.22,0,0,1,.18-.06.2.2,0,0,1,.15.09l.07.07a2.28,2.28,0,0,0,.5.42,3.06,3.06,0,0,0,.56.3,3.42,3.42,0,0,0,.54.18,1.91,1.91,0,0,0,.43.06,2.5,2.5,0,0,0,.66-.09,2.06,2.06,0,0,0,.61-.25,1.49,1.49,0,0,0,.46-.44,1.1,1.1,0,0,0,.18-.62.76.76,0,0,0-.18-.51,1.46,1.46,0,0,0-.47-.36,4.25,4.25,0,0,0-.7-.28l-.86-.26a7.35,7.35,0,0,1-1.08-.39,3,3,0,0,1-.74-.44,1.48,1.48,0,0,1-.43-.55,1.65,1.65,0,0,1-.14-.68,2.09,2.09,0,0,1,.19-.87,1.9,1.9,0,0,1,.55-.68,2.26,2.26,0,0,1,.84-.45,3.54,3.54,0,0,1,1.11-.16,2.82,2.82,0,0,1,.69.08,4.41,4.41,0,0,1,.7.23,3.94,3.94,0,0,1,.63.36,2.53,2.53,0,0,1,.51.46.21.21,0,0,1,0,.33l-.38.36a.23.23,0,0,1-.17.07A.24.24,0,0,1,253.91,170Z"/><circle class="cls-1" cx="207.44" cy="135.73" r="2.34"/><path class="cls-1" d="M90.94,135.14c-1.18-2.16.36-3.35,1.59-3.35,1.41,0,3.15.81,1.92,3.09-1.13,2.09-1.07,3.2-.2,3.93a9.36,9.36,0,0,0,3-6.81c-.1-6.18-7.18-8.18-7.18-8.18,1,2.12-.38,4-2,6.78-1.72,2.93.69,7.08,3.23,8.21C91.93,138.26,92.15,137.36,90.94,135.14Z"/><path d="M95.91,141.35a2.06,2.06,0,0,0-.35-.42,1.5,1.5,0,0,0-.45-.27,1.11,1.11,0,0,0-.44-.1c-.77,0-1.28.71-.71,2.11.3.76-.09,1.55-.78,1.55s-1-.91-.5-2.08a1.09,1.09,0,0,0-1-1.58h-.9a1.15,1.15,0,0,0-1,.4,1.5,1.5,0,0,0-.31.94V161a1.14,1.14,0,0,0,1.27,1.31h3.92a1.46,1.46,0,0,0,1-.33,1.27,1.27,0,0,0,.36-1V141.9A1.1,1.1,0,0,0,95.91,141.35Z"/></svg>